<svg xmlns="http://www.w3.org/2000/svg" xmlns:xlink="http://www.w3.org/1999/xlink" width="500" zoomAndPan="magnify" viewBox="0 0 375 374.999991" height="500" preserveAspectRatio="xMidYMid meet" version="1.0"><defs><clipPath id="441d527a18"><path d="M 63.75 249 L 179 249 L 179 375 L 63.75 375 Z M 63.75 249 " clip-rule="nonzero"/></clipPath><clipPath id="4a63f2669b"><path d="M 63.75 99 L 179 99 L 179 266 L 63.75 266 Z M 63.75 99 " clip-rule="nonzero"/></clipPath><clipPath id="ec233f8c4d"><path d="M 196 0 L 311.25 0 L 311.25 230 L 196 230 Z M 196 0 " clip-rule="nonzero"/></clipPath><clipPath id="52ba56c929"><path d="M 196 211 L 311.25 211 L 311.25 375 L 196 375 Z M 196 211 " clip-rule="nonzero"/></clipPath></defs><g clip-path="url(#441d527a18)"><path fill="#ffb400" d="M 178.359375 374.976562 L 178.359375 277.96875 L 128.496094 249.1875 L 63.75 286.582031 L 63.75 308.792969 L 125.625 344.53125 Z M 178.359375 374.976562 " fill-opacity="1" fill-rule="evenodd"/></g><g clip-path="url(#4a63f2669b)"><path fill="#ff6600" d="M 63.75 265.503906 L 110.289062 238.609375 L 125.625 229.769531 L 139.902344 221.535156 L 178.359375 199.324219 L 178.359375 99.671875 L 125.625 130.121094 L 63.75 165.855469 Z M 63.75 265.503906 " fill-opacity="1" fill-rule="evenodd"/></g><g clip-path="url(#ec233f8c4d)"><path fill="#9047ff" d="M 311.25 68.847656 L 311.25 0.0234375 L 251.640625 34.472656 L 196.640625 66.207031 L 196.640625 199.324219 L 249.375 229.769531 L 249.828125 229.996094 L 311.25 194.5625 Z M 311.25 68.847656 " fill-opacity="1" fill-rule="evenodd"/></g><g clip-path="url(#52ba56c929)"><path fill="#18b0f7" d="M 249.375 247.523438 L 196.640625 277.96875 L 196.640625 374.976562 L 249.375 344.53125 L 311.25 308.792969 L 311.25 211.789062 L 264.785156 238.609375 Z M 249.375 247.523438 " fill-opacity="1" fill-rule="evenodd"/></g></svg>